# xmcd
#
# Track frame offsets: 
#        150
#        9881
#        23414
#        40867
#        54652
#        66865
#        83366
#        95652
#        109558
#        119698
#        136519
#        147492
#        156488
#        166097
#        179733
#        185239
#        201736
#        213033
#        223629
#        231974
#        247246
#        262942
#        275487
#        296238
#        311145
#        324230
#        334617
#
# Disc length: 4652 seconds
#
# Revision: 0
# Processed by: cddbd v1.5.2PL0 Copyright (c) Steve Scherf et al.
# Submitted via: ExactAudioCopy v1.0b3
#
DISCID=95122a1b
DTITLE=The Fabulous Thunderbirds - The Bad and the Best of
DYEAR=2013
DGENRE=Blues
TTITLE0=Please Don't Lie To Me
TTITLE1=She's Tuff
TTITLE2=Why Get Up
TTITLE3=Sugar Coated Love
TTITLE4=Marked Deck
TTITLE5=Runnin' Shoes
TTITLE6=Wrap It Up
TTITLE7=Can't Tear It Up Enuff
TTITLE8=The Crawl
TTITLE9=You're Humbuggin' Me
TTITLE10=Walkin' To My Baby
TTITLE11=Cherry Pink and Apple Blossom White
TTITLE12=That's Enough of That Stuff
TTITLE13=Things I Forgot To Do
TTITLE14=Los Fabulosos Thunderbirds
TTITLE15=Tip On In
TTITLE16=I Believe I'm In Love
TTITLE17=How Do You Spell Love
TTITLE18=You Ain't Nothin' But Free
TTITLE19=Tuff Enuff
TTITLE20=Rich Woman
TTITLE21=Give Me All Your Lovin'
TTITLE22=Powerful Stuff
TTITLE23=Mathilda
TTITLE24=My Babe
TTITLE25=Look Whatcha Done
TTITLE26=Learn To Treat Me Right
EXTD=
EXTT0=
EXTT1=
EXTT2=
EXTT3=
EXTT4=
EXTT5=
EXTT6=
EXTT7=
EXTT8=
EXTT9=
EXTT10=
EXTT11=
EXTT12=
EXTT13=
EXTT14=
EXTT15=
EXTT16=
EXTT17=
EXTT18=
EXTT19=
EXTT20=
EXTT21=
EXTT22=
EXTT23=
EXTT24=
EXTT25=
EXTT26=
PLAYORDER=
